# xmcd
#
# Track frame offsets:
# 150
# 19117
# 42426
# 59756
# 76297
# 97210
# 110860
# 127872
# 144044
# 162330
# 177846
# 191333
#
# Disc length: 2840 seconds
#
#
# Revision: 2
# Processed by: cddbd v1.5.1PL2 Copyright (c) Steve Scherf et al.
# Submitted via: FreeRIP 2.944 
#
DISCID=a10b160c
DTITLE=Rodney Crowell - Collection
DYEAR=1989
DGENRE=country
TTITLE0=Ashes By Now
TTITLE1='Til I Gain Control Again
TTITLE2=Voila, An American Dream
TTITLE3=Queen Of Hearts
TTITLE4=Shame On The Moon
TTITLE5=Old Pipliner
TTITLE6=Stars On The Water
TTITLE7=Heartbroke
TTITLE8=I Don't Have To Crawl
TTITLE9=Leaving Louisiana In The Broad Daylight
TTITLE10=Victim of a Fool
TTITLE11=I Ain't Living Long Like This
EXTD=
EXTT0=
EXTT1=
EXTT2=
EXTT3=
EXTT4=
EXTT5=
EXTT6=
EXTT7=
EXTT8=
EXTT9=
EXTT10=
EXTT11=
PLAYORDER=
